<mxfile host="65bd71144e">
    <diagram id="6yRApM89gLdFuI-FmLbq" name="Page-1">
        <mxGraphModel dx="575" dy="322" grid="1" gridSize="10" guides="1" tooltips="1" connect="1" arrows="1" fold="1" page="1" pageScale="1" pageWidth="850" pageHeight="1100" math="0" shadow="0">
            <root>
                <mxCell id="0"/>
                <mxCell id="1" parent="0"/>
                <mxCell id="55" value="Product" style="shape=umlLifeline;perimeter=lifelinePerimeter;whiteSpace=wrap;html=1;container=0;dropTarget=0;collapsible=0;recursiveResize=0;outlineConnect=0;portConstraint=eastwest;newEdgeStyle={&quot;edgeStyle&quot;:&quot;elbowEdgeStyle&quot;,&quot;elbow&quot;:&quot;vertical&quot;,&quot;curved&quot;:0,&quot;rounded&quot;:0};" parent="1" vertex="1">
                    <mxGeometry x="510" y="120" width="100" height="840" as="geometry"/>
                </mxCell>
                <mxCell id="56" value="Customer" style="shape=umlLifeline;perimeter=lifelinePerimeter;whiteSpace=wrap;html=1;container=0;dropTarget=0;collapsible=0;recursiveResize=0;outlineConnect=0;portConstraint=eastwest;newEdgeStyle={&quot;edgeStyle&quot;:&quot;elbowEdgeStyle&quot;,&quot;elbow&quot;:&quot;vertical&quot;,&quot;curved&quot;:0,&quot;rounded&quot;:0};" parent="1" vertex="1">
                    <mxGeometry x="390" y="120" width="100" height="840" as="geometry"/>
                </mxCell>
                <mxCell id="59" value="EcoSpin" style="shape=umlLifeline;perimeter=lifelinePerimeter;whiteSpace=wrap;html=1;container=0;dropTarget=0;collapsible=0;recursiveResize=0;outlineConnect=0;portConstraint=eastwest;newEdgeStyle={&quot;edgeStyle&quot;:&quot;elbowEdgeStyle&quot;,&quot;elbow&quot;:&quot;vertical&quot;,&quot;curved&quot;:0,&quot;rounded&quot;:0};" parent="1" vertex="1">
                    <mxGeometry x="275" y="120" width="100" height="840" as="geometry"/>
                </mxCell>
                <mxCell id="60" value="User" style="shape=umlActor;verticalLabelPosition=bottom;verticalAlign=top;html=1;outlineConnect=0;" parent="1" vertex="1">
                    <mxGeometry x="190" y="120" width="25" height="40" as="geometry"/>
                </mxCell>
                <mxCell id="61" value="" style="shape=umlLifeline;perimeter=lifelinePerimeter;whiteSpace=wrap;html=1;container=0;dropTarget=0;collapsible=0;recursiveResize=0;outlineConnect=0;portConstraint=eastwest;newEdgeStyle={&quot;edgeStyle&quot;:&quot;elbowEdgeStyle&quot;,&quot;elbow&quot;:&quot;vertical&quot;,&quot;curved&quot;:0,&quot;rounded&quot;:0};size=0;" parent="1" vertex="1">
                    <mxGeometry x="150" y="190" width="100" height="770" as="geometry"/>
                </mxCell>
                <mxCell id="120" style="edgeStyle=none;html=1;exitX=1;exitY=0.5;exitDx=0;exitDy=0;entryX=0;entryY=0.5;entryDx=0;entryDy=0;fontSize=10;" parent="1" edge="1">
                    <mxGeometry relative="1" as="geometry">
                        <mxPoint x="445.0000000000002" y="614.44" as="sourcePoint"/>
                        <mxPoint x="555" y="614.44" as="targetPoint"/>
                    </mxGeometry>
                </mxCell>
                <mxCell id="121" value="SelectedProduct" style="edgeLabel;html=1;align=center;verticalAlign=middle;resizable=0;points=[];fontSize=10;" parent="120" vertex="1" connectable="0">
                    <mxGeometry x="-0.0333" y="1" relative="1" as="geometry">
                        <mxPoint x="-2" as="offset"/>
                    </mxGeometry>
                </mxCell>
                <mxCell id="71" value="" style="rounded=0;whiteSpace=wrap;html=1;" parent="1" vertex="1">
                    <mxGeometry x="435" y="600" width="10" height="30" as="geometry"/>
                </mxCell>
                <mxCell id="92" value="Database" style="shape=umlLifeline;perimeter=lifelinePerimeter;whiteSpace=wrap;html=1;container=0;dropTarget=0;collapsible=0;recursiveResize=0;outlineConnect=0;portConstraint=eastwest;newEdgeStyle={&quot;edgeStyle&quot;:&quot;elbowEdgeStyle&quot;,&quot;elbow&quot;:&quot;vertical&quot;,&quot;curved&quot;:0,&quot;rounded&quot;:0};size=40;" parent="1" vertex="1">
                    <mxGeometry x="630" y="120" width="100" height="840" as="geometry"/>
                </mxCell>
                <mxCell id="111" value="&lt;font style=&quot;font-size: 10px;&quot;&gt;Register()&lt;/font&gt;" style="edgeStyle=none;html=1;exitX=1.023;exitY=0.606;exitDx=0;exitDy=0;entryX=0.032;entryY=0.107;entryDx=0;entryDy=0;entryPerimeter=0;exitPerimeter=0;" parent="1" source="107" target="108" edge="1">
                    <mxGeometry x="-0.0435" relative="1" as="geometry">
                        <mxPoint as="offset"/>
                    </mxGeometry>
                </mxCell>
                <mxCell id="112" style="edgeStyle=none;html=1;exitX=1;exitY=0.5;exitDx=0;exitDy=0;entryX=0;entryY=0.25;entryDx=0;entryDy=0;" parent="1" source="312" target="109" edge="1">
                    <mxGeometry relative="1" as="geometry"/>
                </mxCell>
                <mxCell id="114" value="Login()" style="edgeLabel;html=1;align=center;verticalAlign=middle;resizable=0;points=[];fontSize=10;" parent="112" vertex="1" connectable="0">
                    <mxGeometry x="-0.1136" relative="1" as="geometry">
                        <mxPoint as="offset"/>
                    </mxGeometry>
                </mxCell>
                <mxCell id="107" value="" style="rounded=0;whiteSpace=wrap;html=1;" parent="1" vertex="1">
                    <mxGeometry x="195" y="210" width="10" height="20" as="geometry"/>
                </mxCell>
                <mxCell id="332" style="edgeStyle=none;html=1;exitX=1;exitY=0.344;exitDx=0;exitDy=0;entryX=-0.063;entryY=0.198;entryDx=0;entryDy=0;entryPerimeter=0;exitPerimeter=0;" parent="1" source="108" target="331" edge="1">
                    <mxGeometry relative="1" as="geometry">
                        <mxPoint x="670" y="250" as="targetPoint"/>
                    </mxGeometry>
                </mxCell>
                <mxCell id="333" value="Verify()" style="edgeLabel;html=1;align=center;verticalAlign=middle;resizable=0;points=[];" parent="332" vertex="1" connectable="0">
                    <mxGeometry x="0.2459" relative="1" as="geometry">
                        <mxPoint x="-34" as="offset"/>
                    </mxGeometry>
                </mxCell>
                <mxCell id="108" value="" style="rounded=0;whiteSpace=wrap;html=1;" parent="1" vertex="1">
                    <mxGeometry x="320" y="210" width="10" height="110" as="geometry"/>
                </mxCell>
                <mxCell id="316" value="AutorizeLoginDetails()" style="edgeStyle=none;html=1;exitX=1;exitY=0.75;exitDx=0;exitDy=0;entryX=0;entryY=0.25;entryDx=0;entryDy=0;" parent="1" source="109" target="313" edge="1">
                    <mxGeometry relative="1" as="geometry"/>
                </mxCell>
                <mxCell id="109" value="" style="rounded=0;whiteSpace=wrap;html=1;" parent="1" vertex="1">
                    <mxGeometry x="320" y="360" width="10" height="40" as="geometry"/>
                </mxCell>
                <mxCell id="122" value="" style="rounded=0;whiteSpace=wrap;html=1;" parent="1" vertex="1">
                    <mxGeometry x="555" y="600" width="10" height="60" as="geometry"/>
                </mxCell>
                <mxCell id="372" value="Payment Details &amp;amp; Click on Buy" style="edgeStyle=none;html=1;exitX=0.919;exitY=0.335;exitDx=0;exitDy=0;entryX=-0.014;entryY=0.164;entryDx=0;entryDy=0;entryPerimeter=0;exitPerimeter=0;" parent="1" source="143" target="373" edge="1">
                    <mxGeometry relative="1" as="geometry">
                        <mxPoint x="660" y="805" as="targetPoint"/>
                    </mxGeometry>
                </mxCell>
                <mxCell id="143" value="" style="rounded=0;whiteSpace=wrap;html=1;" parent="1" vertex="1">
                    <mxGeometry x="435" y="790" width="10" height="30" as="geometry"/>
                </mxCell>
                <mxCell id="149" value="&lt;font size=&quot;3&quot;&gt;Sequence Diagram EcoSpin&lt;/font&gt;" style="text;html=1;strokeColor=none;fillColor=none;align=center;verticalAlign=middle;whiteSpace=wrap;rounded=0;fontSize=10;" parent="1" vertex="1">
                    <mxGeometry x="330" y="60" width="290" height="30" as="geometry"/>
                </mxCell>
                <mxCell id="228" value="Product" style="shape=umlLifeline;perimeter=lifelinePerimeter;whiteSpace=wrap;html=1;container=0;dropTarget=0;collapsible=0;recursiveResize=0;outlineConnect=0;portConstraint=eastwest;newEdgeStyle={&quot;edgeStyle&quot;:&quot;elbowEdgeStyle&quot;,&quot;elbow&quot;:&quot;vertical&quot;,&quot;curved&quot;:0,&quot;rounded&quot;:0};" parent="1" vertex="1">
                    <mxGeometry x="490" y="2100" width="100" height="510" as="geometry"/>
                </mxCell>
                <mxCell id="229" value="Customer" style="shape=umlLifeline;perimeter=lifelinePerimeter;whiteSpace=wrap;html=1;container=0;dropTarget=0;collapsible=0;recursiveResize=0;outlineConnect=0;portConstraint=eastwest;newEdgeStyle={&quot;edgeStyle&quot;:&quot;elbowEdgeStyle&quot;,&quot;elbow&quot;:&quot;vertical&quot;,&quot;curved&quot;:0,&quot;rounded&quot;:0};" parent="1" vertex="1">
                    <mxGeometry x="370" y="2100" width="100" height="510" as="geometry"/>
                </mxCell>
                <mxCell id="230" value="EcoSpin" style="shape=umlLifeline;perimeter=lifelinePerimeter;whiteSpace=wrap;html=1;container=0;dropTarget=0;collapsible=0;recursiveResize=0;outlineConnect=0;portConstraint=eastwest;newEdgeStyle={&quot;edgeStyle&quot;:&quot;elbowEdgeStyle&quot;,&quot;elbow&quot;:&quot;vertical&quot;,&quot;curved&quot;:0,&quot;rounded&quot;:0};" parent="1" vertex="1">
                    <mxGeometry x="255" y="2100" width="100" height="510" as="geometry"/>
                </mxCell>
                <mxCell id="231" value="User" style="shape=umlActor;verticalLabelPosition=bottom;verticalAlign=top;html=1;outlineConnect=0;" parent="1" vertex="1">
                    <mxGeometry x="170" y="2100" width="25" height="40" as="geometry"/>
                </mxCell>
                <mxCell id="232" value="" style="shape=umlLifeline;perimeter=lifelinePerimeter;whiteSpace=wrap;html=1;container=0;dropTarget=0;collapsible=0;recursiveResize=0;outlineConnect=0;portConstraint=eastwest;newEdgeStyle={&quot;edgeStyle&quot;:&quot;elbowEdgeStyle&quot;,&quot;elbow&quot;:&quot;vertical&quot;,&quot;curved&quot;:0,&quot;rounded&quot;:0};size=0;" parent="1" vertex="1">
                    <mxGeometry x="130" y="2170" width="100" height="440" as="geometry"/>
                </mxCell>
                <mxCell id="233" style="edgeStyle=none;html=1;exitX=1;exitY=0.5;exitDx=0;exitDy=0;entryX=0;entryY=0.5;entryDx=0;entryDy=0;fontSize=10;" parent="1" source="235" target="247" edge="1">
                    <mxGeometry relative="1" as="geometry"/>
                </mxCell>
                <mxCell id="234" value="ViewProducts()" style="edgeLabel;html=1;align=center;verticalAlign=middle;resizable=0;points=[];fontSize=10;" parent="233" vertex="1" connectable="0">
                    <mxGeometry x="-0.0333" y="1" relative="1" as="geometry">
                        <mxPoint as="offset"/>
                    </mxGeometry>
                </mxCell>
                <mxCell id="235" value="" style="rounded=0;whiteSpace=wrap;html=1;" parent="1" vertex="1">
                    <mxGeometry x="415" y="2320" width="10" height="30" as="geometry"/>
                </mxCell>
                <mxCell id="236" value="Database" style="shape=umlLifeline;perimeter=lifelinePerimeter;whiteSpace=wrap;html=1;container=0;dropTarget=0;collapsible=0;recursiveResize=0;outlineConnect=0;portConstraint=eastwest;newEdgeStyle={&quot;edgeStyle&quot;:&quot;elbowEdgeStyle&quot;,&quot;elbow&quot;:&quot;vertical&quot;,&quot;curved&quot;:0,&quot;rounded&quot;:0};size=40;" parent="1" vertex="1">
                    <mxGeometry x="610" y="2100" width="100" height="510" as="geometry"/>
                </mxCell>
                <mxCell id="237" value="&lt;font style=&quot;font-size: 10px;&quot;&gt;Signup()&lt;/font&gt;" style="edgeStyle=none;html=1;exitX=1.02;exitY=0.198;exitDx=0;exitDy=0;entryX=0;entryY=0.5;entryDx=0;entryDy=0;exitPerimeter=0;" parent="1" source="240" target="241" edge="1">
                    <mxGeometry relative="1" as="geometry"/>
                </mxCell>
                <mxCell id="238" style="edgeStyle=none;html=1;exitX=1.034;exitY=0.797;exitDx=0;exitDy=0;entryX=0;entryY=0.5;entryDx=0;entryDy=0;exitPerimeter=0;" parent="1" source="240" target="242" edge="1">
                    <mxGeometry relative="1" as="geometry"/>
                </mxCell>
                <mxCell id="239" value="Login()" style="edgeLabel;html=1;align=center;verticalAlign=middle;resizable=0;points=[];fontSize=10;" parent="238" vertex="1" connectable="0">
                    <mxGeometry x="-0.1136" relative="1" as="geometry">
                        <mxPoint as="offset"/>
                    </mxGeometry>
                </mxCell>
                <mxCell id="240" value="" style="rounded=0;whiteSpace=wrap;html=1;" parent="1" vertex="1">
                    <mxGeometry x="175" y="2190" width="10" height="50" as="geometry"/>
                </mxCell>
                <mxCell id="241" value="" style="rounded=0;whiteSpace=wrap;html=1;" parent="1" vertex="1">
                    <mxGeometry x="300" y="2190" width="10" height="20" as="geometry"/>
                </mxCell>
                <mxCell id="242" value="" style="rounded=0;whiteSpace=wrap;html=1;" parent="1" vertex="1">
                    <mxGeometry x="300" y="2220" width="10" height="20" as="geometry"/>
                </mxCell>
                <mxCell id="243" style="edgeStyle=none;html=1;exitX=1.03;exitY=0.794;exitDx=0;exitDy=0;entryX=0;entryY=0.25;entryDx=0;entryDy=0;fontSize=10;exitPerimeter=0;" parent="1" source="246" target="261" edge="1">
                    <mxGeometry relative="1" as="geometry"/>
                </mxCell>
                <mxCell id="244" value="ProductDisplay()" style="edgeLabel;html=1;align=center;verticalAlign=middle;resizable=0;points=[];fontSize=10;" parent="243" vertex="1" connectable="0">
                    <mxGeometry x="-0.2805" y="1" relative="1" as="geometry">
                        <mxPoint x="12" as="offset"/>
                    </mxGeometry>
                </mxCell>
                <mxCell id="245" value="LoginDetails()" style="edgeStyle=none;html=1;exitX=1.187;exitY=0.036;exitDx=0;exitDy=0;entryX=0;entryY=0.25;entryDx=0;entryDy=0;fontSize=10;exitPerimeter=0;" parent="1" source="246" target="267" edge="1">
                    <mxGeometry relative="1" as="geometry"/>
                </mxCell>
                <mxCell id="246" value="" style="rounded=0;whiteSpace=wrap;html=1;" parent="1" vertex="1">
                    <mxGeometry x="300" y="2260" width="10" height="260" as="geometry"/>
                </mxCell>
                <mxCell id="247" value="" style="rounded=0;whiteSpace=wrap;html=1;" parent="1" vertex="1">
                    <mxGeometry x="535" y="2320" width="10" height="30" as="geometry"/>
                </mxCell>
                <mxCell id="248" style="edgeStyle=none;html=1;exitX=0.984;exitY=0.157;exitDx=0;exitDy=0;entryX=0;entryY=0.5;entryDx=0;entryDy=0;fontSize=10;exitPerimeter=0;" parent="1" source="252" target="253" edge="1">
                    <mxGeometry relative="1" as="geometry"/>
                </mxCell>
                <mxCell id="249" value="GetProducts()" style="edgeLabel;html=1;align=center;verticalAlign=middle;resizable=0;points=[];fontSize=10;" parent="248" vertex="1" connectable="0">
                    <mxGeometry x="0.1001" y="1" relative="1" as="geometry">
                        <mxPoint as="offset"/>
                    </mxGeometry>
                </mxCell>
                <mxCell id="250" style="edgeStyle=none;html=1;exitX=-0.101;exitY=0.899;exitDx=0;exitDy=0;fontSize=10;exitPerimeter=0;" parent="1" edge="1">
                    <mxGeometry relative="1" as="geometry">
                        <mxPoint x="534.9900000000002" y="2431.1549999999997" as="sourcePoint"/>
                        <mxPoint x="426" y="2428.836368979735" as="targetPoint"/>
                    </mxGeometry>
                </mxCell>
                <mxCell id="251" value="ProductDetails()" style="edgeLabel;html=1;align=center;verticalAlign=middle;resizable=0;points=[];fontSize=10;" parent="250" vertex="1" connectable="0">
                    <mxGeometry x="0.243" y="-2" relative="1" as="geometry">
                        <mxPoint x="15" y="2" as="offset"/>
                    </mxGeometry>
                </mxCell>
                <mxCell id="252" value="" style="rounded=0;whiteSpace=wrap;html=1;" parent="1" vertex="1">
                    <mxGeometry x="535" y="2360" width="10" height="80" as="geometry"/>
                </mxCell>
                <mxCell id="253" value="" style="rounded=0;whiteSpace=wrap;html=1;" parent="1" vertex="1">
                    <mxGeometry x="655" y="2360" width="10" height="25" as="geometry"/>
                </mxCell>
                <mxCell id="254" style="edgeStyle=none;html=1;fontSize=10;entryX=1.04;entryY=0.564;entryDx=0;entryDy=0;entryPerimeter=0;exitX=0;exitY=0.5;exitDx=0;exitDy=0;" parent="1" source="256" target="252" edge="1">
                    <mxGeometry relative="1" as="geometry">
                        <mxPoint x="550" y="2405" as="targetPoint"/>
                    </mxGeometry>
                </mxCell>
                <mxCell id="255" value="Products()" style="edgeLabel;html=1;align=center;verticalAlign=middle;resizable=0;points=[];fontSize=10;" parent="254" vertex="1" connectable="0">
                    <mxGeometry x="-0.0703" relative="1" as="geometry">
                        <mxPoint as="offset"/>
                    </mxGeometry>
                </mxCell>
                <mxCell id="256" value="" style="rounded=0;whiteSpace=wrap;html=1;" parent="1" vertex="1">
                    <mxGeometry x="655" y="2390" width="10" height="30" as="geometry"/>
                </mxCell>
                <mxCell id="257" value="" style="rounded=0;whiteSpace=wrap;html=1;" parent="1" vertex="1">
                    <mxGeometry x="415" y="2420" width="10" height="20" as="geometry"/>
                </mxCell>
                <mxCell id="258" value="PaymentDetails()" style="edgeStyle=none;html=1;exitX=-0.013;exitY=0.824;exitDx=0;exitDy=0;entryX=1.15;entryY=0.95;entryDx=0;entryDy=0;entryPerimeter=0;fontSize=10;exitPerimeter=0;" parent="1" source="261" target="246" edge="1">
                    <mxGeometry relative="1" as="geometry"/>
                </mxCell>
                <mxCell id="259" style="edgeStyle=none;html=1;exitX=1;exitY=0.5;exitDx=0;exitDy=0;entryX=0;entryY=0.5;entryDx=0;entryDy=0;fontSize=10;" parent="1" source="261" target="262" edge="1">
                    <mxGeometry relative="1" as="geometry"/>
                </mxCell>
                <mxCell id="260" value="BuyProduct()" style="edgeLabel;html=1;align=center;verticalAlign=middle;resizable=0;points=[];fontSize=10;" parent="259" vertex="1" connectable="0">
                    <mxGeometry x="-0.0882" y="1" relative="1" as="geometry">
                        <mxPoint as="offset"/>
                    </mxGeometry>
                </mxCell>
                <mxCell id="261" value="" style="rounded=0;whiteSpace=wrap;html=1;" parent="1" vertex="1">
                    <mxGeometry x="415" y="2450" width="10" height="70" as="geometry"/>
                </mxCell>
                <mxCell id="262" value="" style="rounded=0;whiteSpace=wrap;html=1;" parent="1" vertex="1">
                    <mxGeometry x="535" y="2475" width="10" height="20" as="geometry"/>
                </mxCell>
                <mxCell id="263" value="" style="rounded=0;whiteSpace=wrap;html=1;" parent="1" vertex="1">
                    <mxGeometry x="300" y="2530" width="10" height="40" as="geometry"/>
                </mxCell>
                <mxCell id="264" style="edgeStyle=none;html=1;exitX=0;exitY=0.5;exitDx=0;exitDy=0;entryX=1;entryY=0.5;entryDx=0;entryDy=0;fontSize=10;" parent="1" source="266" target="263" edge="1">
                    <mxGeometry relative="1" as="geometry"/>
                </mxCell>
                <mxCell id="265" value="Logout()" style="edgeLabel;html=1;align=center;verticalAlign=middle;resizable=0;points=[];fontSize=10;" parent="264" vertex="1" connectable="0">
                    <mxGeometry x="0.0754" relative="1" as="geometry">
                        <mxPoint as="offset"/>
                    </mxGeometry>
                </mxCell>
                <mxCell id="266" value="" style="rounded=0;whiteSpace=wrap;html=1;" parent="1" vertex="1">
                    <mxGeometry x="415" y="2530" width="10" height="40" as="geometry"/>
                </mxCell>
                <mxCell id="267" value="" style="rounded=0;whiteSpace=wrap;html=1;" parent="1" vertex="1">
                    <mxGeometry x="655" y="2260" width="10" height="50" as="geometry"/>
                </mxCell>
                <mxCell id="268" value="VerifyAccountDetials()" style="edgeStyle=none;html=1;exitX=1;exitY=0.25;exitDx=0;exitDy=0;entryX=0.951;entryY=0.799;entryDx=0;entryDy=0;fontSize=10;entryPerimeter=0;" parent="1" source="267" target="267" edge="1">
                    <mxGeometry relative="1" as="geometry">
                        <Array as="points">
                            <mxPoint x="730" y="2273"/>
                            <mxPoint x="730" y="2300"/>
                        </Array>
                    </mxGeometry>
                </mxCell>
                <mxCell id="269" value="&lt;font size=&quot;3&quot;&gt;Sequence Diagram EcoSpin&lt;/font&gt;" style="text;html=1;strokeColor=none;fillColor=none;align=center;verticalAlign=middle;whiteSpace=wrap;rounded=0;fontSize=10;" parent="1" vertex="1">
                    <mxGeometry x="310" y="2040" width="290" height="30" as="geometry"/>
                </mxCell>
                <mxCell id="312" value="" style="rounded=0;whiteSpace=wrap;html=1;" parent="1" vertex="1">
                    <mxGeometry x="195" y="360" width="10" height="20" as="geometry"/>
                </mxCell>
                <mxCell id="313" value="" style="rounded=0;whiteSpace=wrap;html=1;" parent="1" vertex="1">
                    <mxGeometry x="675" y="380" width="10" height="50" as="geometry"/>
                </mxCell>
                <mxCell id="319" value="" style="endArrow=classic;html=1;rounded=0;exitX=0;exitY=0.75;exitDx=0;exitDy=0;dashed=1;" parent="1" source="313" edge="1">
                    <mxGeometry width="50" height="50" relative="1" as="geometry">
                        <mxPoint x="255" y="445" as="sourcePoint"/>
                        <mxPoint x="324.89393939393926" y="417.5000000000001" as="targetPoint"/>
                    </mxGeometry>
                </mxCell>
                <mxCell id="320" value="Success_Token" style="edgeLabel;html=1;align=center;verticalAlign=middle;resizable=0;points=[];" parent="319" vertex="1" connectable="0">
                    <mxGeometry x="-0.0982" relative="1" as="geometry">
                        <mxPoint as="offset"/>
                    </mxGeometry>
                </mxCell>
                <mxCell id="321" value="Logged in" style="endArrow=classic;html=1;rounded=0;dashed=1;" parent="1" edge="1">
                    <mxGeometry width="50" height="50" relative="1" as="geometry">
                        <mxPoint x="325.5" y="440" as="sourcePoint"/>
                        <mxPoint x="439.5" y="440" as="targetPoint"/>
                    </mxGeometry>
                </mxCell>
                <mxCell id="331" value="" style="rounded=0;whiteSpace=wrap;html=1;" parent="1" vertex="1">
                    <mxGeometry x="675" y="240" width="10" height="50" as="geometry"/>
                </mxCell>
                <mxCell id="334" value="" style="endArrow=classic;html=1;rounded=0;exitX=0;exitY=0.75;exitDx=0;exitDy=0;dashed=1;entryX=1.084;entryY=0.632;entryDx=0;entryDy=0;entryPerimeter=0;" parent="1" source="331" target="108" edge="1">
                    <mxGeometry width="50" height="50" relative="1" as="geometry">
                        <mxPoint x="684.9999999999998" y="402.19999999999993" as="sourcePoint"/>
                        <mxPoint x="334.89393939393926" y="402.19999999999993" as="targetPoint"/>
                    </mxGeometry>
                </mxCell>
                <mxCell id="335" value="Valid" style="edgeLabel;html=1;align=center;verticalAlign=middle;resizable=0;points=[];" parent="334" vertex="1" connectable="0">
                    <mxGeometry x="-0.0982" relative="1" as="geometry">
                        <mxPoint x="-10" as="offset"/>
                    </mxGeometry>
                </mxCell>
                <mxCell id="336" value="" style="endArrow=classic;html=1;rounded=0;exitX=0.074;exitY=0.854;exitDx=0;exitDy=0;dashed=1;exitPerimeter=0;" parent="1" source="108" target="61" edge="1">
                    <mxGeometry width="50" height="50" relative="1" as="geometry">
                        <mxPoint x="497.08000000000004" y="300.0000000000001" as="sourcePoint"/>
                        <mxPoint x="152.92000000000004" y="302.0200000000001" as="targetPoint"/>
                    </mxGeometry>
                </mxCell>
                <mxCell id="338" value="Account&lt;br&gt;Creted Sucesfully" style="edgeLabel;html=1;align=center;verticalAlign=middle;resizable=0;points=[];" parent="336" vertex="1" connectable="0">
                    <mxGeometry x="0.1506" y="-2" relative="1" as="geometry">
                        <mxPoint x="10" y="-12" as="offset"/>
                    </mxGeometry>
                </mxCell>
                <mxCell id="348" style="edgeStyle=none;html=1;exitX=1;exitY=0.5;exitDx=0;exitDy=0;entryX=-0.011;entryY=0.125;entryDx=0;entryDy=0;entryPerimeter=0;" parent="1" source="345" target="347" edge="1">
                    <mxGeometry relative="1" as="geometry"/>
                </mxCell>
                <mxCell id="349" value="Category()" style="edgeLabel;html=1;align=center;verticalAlign=middle;resizable=0;points=[];" parent="348" vertex="1" connectable="0">
                    <mxGeometry x="-0.4712" relative="1" as="geometry">
                        <mxPoint x="22" y="-2" as="offset"/>
                    </mxGeometry>
                </mxCell>
                <mxCell id="345" value="" style="rounded=0;whiteSpace=wrap;html=1;" parent="1" vertex="1">
                    <mxGeometry x="320" y="490" width="10" height="20" as="geometry"/>
                </mxCell>
                <mxCell id="347" value="" style="rounded=0;whiteSpace=wrap;html=1;" parent="1" vertex="1">
                    <mxGeometry x="435" y="490" width="10" height="80" as="geometry"/>
                </mxCell>
                <mxCell id="350" value="PickedCategory" style="endArrow=classic;html=1;rounded=0;dashed=1;exitX=1;exitY=0.5;exitDx=0;exitDy=0;entryX=0.007;entryY=0.325;entryDx=0;entryDy=0;entryPerimeter=0;" parent="1" edge="1">
                    <mxGeometry x="-0.1823" width="50" height="50" relative="1" as="geometry">
                        <mxPoint x="445" y="530" as="sourcePoint"/>
                        <mxPoint x="555.0699999999999" y="529.75" as="targetPoint"/>
                        <Array as="points">
                            <mxPoint x="460" y="530"/>
                        </Array>
                        <mxPoint as="offset"/>
                    </mxGeometry>
                </mxCell>
                <mxCell id="353" value="" style="rounded=0;whiteSpace=wrap;html=1;" parent="1" vertex="1">
                    <mxGeometry x="675" y="520" width="10" height="50" as="geometry"/>
                </mxCell>
                <mxCell id="355" value="" style="rounded=0;whiteSpace=wrap;html=1;" parent="1" vertex="1">
                    <mxGeometry x="555" y="520" width="10" height="30" as="geometry"/>
                </mxCell>
                <mxCell id="356" value="RequestProducts" style="endArrow=classic;html=1;rounded=0;dashed=1;exitX=1;exitY=0.5;exitDx=0;exitDy=0;entryX=0;entryY=0.25;entryDx=0;entryDy=0;" parent="1" edge="1">
                    <mxGeometry x="0.0182" width="50" height="50" relative="1" as="geometry">
                        <mxPoint x="564" y="542.35" as="sourcePoint"/>
                        <mxPoint x="674" y="542.35" as="targetPoint"/>
                        <Array as="points">
                            <mxPoint x="659" y="542.35"/>
                        </Array>
                        <mxPoint as="offset"/>
                    </mxGeometry>
                </mxCell>
                <mxCell id="357" value="" style="endArrow=classic;html=1;rounded=0;dashed=1;entryX=1.071;entryY=0.88;entryDx=0;entryDy=0;entryPerimeter=0;exitX=-0.013;exitY=0.818;exitDx=0;exitDy=0;exitPerimeter=0;" parent="1" source="353" target="347" edge="1">
                    <mxGeometry width="50" height="50" relative="1" as="geometry">
                        <mxPoint x="670" y="560" as="sourcePoint"/>
                        <mxPoint x="439.875" y="560.0000000000001" as="targetPoint"/>
                    </mxGeometry>
                </mxCell>
                <mxCell id="358" value="Products()" style="edgeLabel;html=1;align=center;verticalAlign=middle;resizable=0;points=[];" parent="357" vertex="1" connectable="0">
                    <mxGeometry x="-0.0281" relative="1" as="geometry">
                        <mxPoint as="offset"/>
                    </mxGeometry>
                </mxCell>
                <mxCell id="359" value="" style="endArrow=classic;html=1;rounded=0;dashed=1;exitX=-0.011;exitY=0.832;exitDx=0;exitDy=0;exitPerimeter=0;" parent="1" source="122" edge="1" target="59">
                    <mxGeometry width="50" height="50" relative="1" as="geometry">
                        <mxPoint x="550" y="655" as="sourcePoint"/>
                        <mxPoint x="440" y="650" as="targetPoint"/>
                        <Array as="points">
                            <mxPoint x="555" y="650"/>
                        </Array>
                    </mxGeometry>
                </mxCell>
                <mxCell id="360" value="ProductDetails()" style="edgeLabel;html=1;align=center;verticalAlign=middle;resizable=0;points=[];" parent="359" vertex="1" connectable="0">
                    <mxGeometry x="-0.0281" relative="1" as="geometry">
                        <mxPoint as="offset"/>
                    </mxGeometry>
                </mxCell>
                <mxCell id="365" value="Add to Cart()" style="edgeStyle=none;html=1;exitX=1;exitY=0.5;exitDx=0;exitDy=0;entryX=0;entryY=0.25;entryDx=0;entryDy=0;fontSize=10;" parent="1" edge="1">
                    <mxGeometry relative="1" as="geometry">
                        <mxPoint x="445.0000000000002" y="694.72" as="sourcePoint"/>
                        <mxPoint x="675" y="695.28" as="targetPoint"/>
                    </mxGeometry>
                </mxCell>
                <mxCell id="367" value="" style="rounded=0;whiteSpace=wrap;html=1;" parent="1" vertex="1">
                    <mxGeometry x="435" y="680" width="10" height="30" as="geometry"/>
                </mxCell>
                <mxCell id="368" value="" style="rounded=0;whiteSpace=wrap;html=1;" parent="1" vertex="1">
                    <mxGeometry x="675" y="680" width="10" height="60" as="geometry"/>
                </mxCell>
                <mxCell id="369" value="" style="endArrow=classic;html=1;rounded=0;dashed=1;exitX=-0.011;exitY=0.832;exitDx=0;exitDy=0;exitPerimeter=0;" parent="1" source="368" edge="1" target="59">
                    <mxGeometry width="50" height="50" relative="1" as="geometry">
                        <mxPoint x="550" y="735" as="sourcePoint"/>
                        <mxPoint x="440" y="730" as="targetPoint"/>
                        <Array as="points">
                            <mxPoint x="555" y="730"/>
                        </Array>
                    </mxGeometry>
                </mxCell>
                <mxCell id="370" value="UpdateCartPage()" style="edgeLabel;html=1;align=center;verticalAlign=middle;resizable=0;points=[];" parent="369" vertex="1" connectable="0">
                    <mxGeometry x="-0.0281" relative="1" as="geometry">
                        <mxPoint as="offset"/>
                    </mxGeometry>
                </mxCell>
                <mxCell id="371" value="Update&amp;nbsp;Cart&lt;br&gt;in&lt;br&gt;Databse" style="edgeStyle=none;html=1;exitX=1;exitY=0.25;exitDx=0;exitDy=0;entryX=0.944;entryY=0.826;entryDx=0;entryDy=0;entryPerimeter=0;" parent="1" source="368" target="368" edge="1">
                    <mxGeometry x="-0.0527" y="30" relative="1" as="geometry">
                        <Array as="points">
                            <mxPoint x="720" y="695"/>
                            <mxPoint x="720" y="710"/>
                            <mxPoint x="720" y="730"/>
                        </Array>
                        <mxPoint as="offset"/>
                    </mxGeometry>
                </mxCell>
                <mxCell id="373" value="" style="rounded=0;whiteSpace=wrap;html=1;" parent="1" vertex="1">
                    <mxGeometry x="675" y="790" width="10" height="60" as="geometry"/>
                </mxCell>
                <mxCell id="374" value="Save Order" style="edgeStyle=none;html=1;exitX=1.071;exitY=0.171;exitDx=0;exitDy=0;entryX=1.205;entryY=0.818;entryDx=0;entryDy=0;entryPerimeter=0;exitPerimeter=0;" parent="1" source="373" target="373" edge="1">
                    <mxGeometry relative="1" as="geometry">
                        <Array as="points">
                            <mxPoint x="720" y="800"/>
                            <mxPoint x="720" y="820"/>
                            <mxPoint x="720" y="840"/>
                        </Array>
                    </mxGeometry>
                </mxCell>
                <mxCell id="375" value="" style="endArrow=classic;html=1;rounded=0;dashed=1;exitX=-0.011;exitY=0.832;exitDx=0;exitDy=0;exitPerimeter=0;" parent="1" edge="1" target="59">
                    <mxGeometry width="50" height="50" relative="1" as="geometry">
                        <mxPoint x="674.9999999999999" y="840.0000000000001" as="sourcePoint"/>
                        <mxPoint x="440.11" y="840.08" as="targetPoint"/>
                        <Array as="points">
                            <mxPoint x="555.11" y="840.08"/>
                        </Array>
                    </mxGeometry>
                </mxCell>
                <mxCell id="376" value="Order Placed()" style="edgeLabel;html=1;align=center;verticalAlign=middle;resizable=0;points=[];" parent="375" vertex="1" connectable="0">
                    <mxGeometry x="-0.0281" relative="1" as="geometry">
                        <mxPoint as="offset"/>
                    </mxGeometry>
                </mxCell>
                <mxCell id="379" value="Logout()" style="edgeStyle=none;html=1;exitX=0;exitY=0.5;exitDx=0;exitDy=0;entryX=1;entryY=0.5;entryDx=0;entryDy=0;" parent="1" source="377" target="378" edge="1">
                    <mxGeometry relative="1" as="geometry"/>
                </mxCell>
                <mxCell id="377" value="" style="rounded=0;whiteSpace=wrap;html=1;" parent="1" vertex="1">
                    <mxGeometry x="435" y="870" width="10" height="20" as="geometry"/>
                </mxCell>
                <mxCell id="378" value="" style="rounded=0;whiteSpace=wrap;html=1;" parent="1" vertex="1">
                    <mxGeometry x="320" y="870" width="10" height="20" as="geometry"/>
                </mxCell>
                <mxCell id="380" value="Generate&lt;br&gt;Autorization&amp;nbsp;&lt;br&gt;Token" style="edgeStyle=none;html=1;exitX=0.965;exitY=0.198;exitDx=0;exitDy=0;entryX=1;entryY=0.75;entryDx=0;entryDy=0;exitPerimeter=0;" parent="1" source="331" target="331" edge="1">
                    <mxGeometry x="-0.0807" y="40" relative="1" as="geometry">
                        <Array as="points">
                            <mxPoint x="720" y="250"/>
                            <mxPoint x="720" y="260"/>
                            <mxPoint x="720" y="278"/>
                        </Array>
                        <mxPoint as="offset"/>
                    </mxGeometry>
                </mxCell>
            </root>
        </mxGraphModel>
    </diagram>
</mxfile>